<?xml version="1.0" encoding="iso-8859-1"?>
<!-- Generator: Adobe Illustrator 19.0.0, SVG Export Plug-In . SVG Version: 6.00 Build 0)  -->
<svg version="1.1" id="Layer_1" xmlns="http://www.w3.org/2000/svg" xmlns:xlink="http://www.w3.org/1999/xlink" x="0px" y="0px"
	 viewBox="0 0 512 512" style="enable-background:new 0 0 512 512;" xml:space="preserve">
<g>
	<g>
		<path d="M511.061,241.365c-0.213-0.512-0.427-0.981-0.725-1.472c-0.512-0.853-1.173-1.579-1.92-2.261
			c-0.299-0.277-0.427-0.661-0.768-0.896c-0.149-0.107-0.363-0.107-0.512-0.213c-0.192-0.128-0.299-0.32-0.512-0.448l-47.893-27.371
			c6.4-6.165,10.603-14.507,10.603-23.936c0-12.736-7.104-24.213-18.517-29.952l-78.165-39.083l9.067-22.677l6.144-3.072
			c3.179,1.92,6.848,2.965,10.667,2.965c1.941,0,3.925-0.256,5.888-0.811l82.219-23.509C501.568,64.341,512,50.517,512,34.987
			C512,15.701,496.299,0,477.013,0H467.2c-7.936,0-15.701,2.731-21.867,7.659l-59.819,47.851c-4.949,3.968-7.381,9.685-7.595,15.595
			l-9.365,4.672c-2.347,1.173-4.181,3.157-5.141,5.589l-9.92,24.789l-29.803-14.891c-22.763-11.392-51.947-5.227-68.181,14.251
			l-90.88,109.056L7.936,256.363c-0.597,0.171-1.045,0.533-1.6,0.789c-0.32,0.149-0.704,0.085-1.024,0.277
			c-0.192,0.107-0.277,0.341-0.448,0.448c-1.344,0.896-2.517,1.984-3.328,3.349c-0.085,0.149-0.128,0.299-0.213,0.448
			c-0.704,1.323-1.067,2.795-1.152,4.331c0,0.235-0.171,0.427-0.171,0.661V416c0,3.819,2.048,7.36,5.376,9.259l149.333,85.333
			c1.643,0.939,3.477,1.408,5.291,1.408c1.045,0,2.133-0.149,3.179-0.491l341.333-106.667c4.459-1.387,7.488-5.504,7.488-10.176
			V245.333c0-0.363-0.213-0.661-0.235-1.024C511.659,243.285,511.445,242.325,511.061,241.365z M458.688,24.32
			c2.389-1.92,5.419-2.987,8.512-2.987h9.835c7.531,0,13.653,6.123,13.653,13.653c0,6.059-4.075,11.456-9.899,13.12l-76.565,21.888
			c-0.021-0.043-0.021-0.064-0.021-0.107c-0.235-0.491-0.661-0.789-0.96-1.216L458.688,24.32z M271.915,119.168
			c6.635-7.936,16.363-12.501,26.709-12.501c5.355,0,10.731,1.28,15.595,3.648l31.339,15.659l-2.155,5.376l-103.573,62.165
			c-5.035,3.029-6.677,9.579-3.648,14.635c2.005,3.349,5.525,5.184,9.152,5.184c1.877,0,3.776-0.491,5.483-1.536l106.667-64
			c2.005-1.195,3.541-3.008,4.416-5.184l2.816-7.04l76.608,38.293c4.139,2.091,6.72,6.251,6.72,10.965
			c0,5.589-3.797,10.432-9.216,11.797l-5.184,1.301c-0.021,0-0.064,0.021-0.085,0.021l-287.083,71.765L271.915,119.168z
			 M149.333,482.944l-128-73.131V285.056l128,73.131V482.944z M161.259,340.437L38.507,270.293l102.485-27.328l-31.851,38.208
			c-2.944,3.563-3.285,8.597-0.832,12.501c1.963,3.157,5.419,4.992,9.024,4.992c0.853,0,1.728-0.107,2.603-0.341l35.84-8.96
			l30.741,18.453c1.728,1.024,3.627,1.515,5.483,1.515c3.605,0,7.147-1.835,9.152-5.163c3.029-5.056,1.408-11.605-3.648-14.635
			l-12.48-7.488l41.003-10.24l24.491,14.677c1.728,1.024,3.627,1.515,5.483,1.515c3.605,0,7.147-1.835,9.152-5.163
			c3.029-5.056,1.408-11.605-3.648-14.635l-6.208-3.712l41.024-10.261l18.176,10.923c1.749,1.024,3.648,1.515,5.504,1.515
			c3.605,0,7.147-1.835,9.152-5.163c3.008-5.035,1.408-11.541-3.584-14.592l41.024-10.261l11.925,7.147
			c1.728,1.045,3.627,1.536,5.483,1.536c3.605,0,7.147-1.835,9.152-5.163c1.941-3.243,1.792-7.04,0.213-10.197l41.451-10.368
			l39.979,22.848L161.259,340.437z M490.667,386.816l-320,100.011V359.829l320-99.989V386.816z"/>
	</g>
</g>
<g>
</g>
<g>
</g>
<g>
</g>
<g>
</g>
<g>
</g>
<g>
</g>
<g>
</g>
<g>
</g>
<g>
</g>
<g>
</g>
<g>
</g>
<g>
</g>
<g>
</g>
<g>
</g>
<g>
</g>
</svg>
