<svg viewBox="0 0 64 64" fill="#fff" height="48" width="48" xmlns="http://www.w3.org/2000/svg"><circle cx="6" cy="6" r="1"/><circle cx="13" cy="6" r="1"/><circle cx="21" cy="6" r="1"/><circle cx="28" cy="6" r="1"/><path d="m62 1h-60a1 1 0 0 0 -1 1v60a1 1 0 0 0 1 1h60a1 1 0 0 0 1-1v-60a1 1 0 0 0 -1-1zm-29 30v-13h28v13zm-2 15h-28v-13h28zm30-30h-28v-13h28zm-30-13v28h-13v-28zm-28 0h13v28h-13zm0 45h28v13h-28zm30 13v-28h13v28zm28 0h-13v-28h13z"/><circle cx="58" cy="6" r="1"/><circle cx="58" cy="13" r="1"/><circle cx="58" cy="21" r="1"/><circle cx="58" cy="28" r="1"/><path d="m28 27a1 1 0 0 0 1-1v-12a1 1 0 0 0 -2 0v12a1 1 0 0 0 1 1z"/><path d="m36 7h8a1 1 0 0 0 0-2h-8a1 1 0 0 0 0 2z"/><circle cx="58" cy="58" r="1"/><circle cx="51" cy="58" r="1"/><circle cx="43" cy="58" r="1"/><circle cx="36" cy="58" r="1"/><circle cx="6" cy="58" r="1"/><circle cx="6" cy="51" r="1"/><circle cx="6" cy="43" r="1"/><circle cx="6" cy="36" r="1"/><path d="m36 37a1 1 0 0 0 -1 1v12a1 1 0 0 0 2 0v-12a1 1 0 0 0 -1-1z"/><path d="m28 57h-8a1 1 0 0 0 0 2h8a1 1 0 0 0 0-2z"/></svg>