<svg id="Line_cutting_stroke_ex" viewBox="0 0 512 512" fill="#fff" height="48" width="48" xmlns="http://www.w3.org/2000/svg" data-name="Line cutting stroke ex"><g><path d="m20.1611 213.8633 16.5909 9.0732 9.0742 16.5908a8 8 0 0 0 14.0371 0l9.0732-16.5908 16.5908-9.0732a8 8 0 0 0 0-14.0371l-16.5908-9.0742-9.0732-16.5909a8 8 0 0 0 -14.0371 0l-9.0742 16.5909-16.5909 9.0742a8 8 0 0 0 0 14.0371zm26.3243-10.1983a7.996 7.996 0 0 0 3.18-3.18l3.18-5.8125 3.1787 5.8125a7.9956 7.9956 0 0 0 3.18 3.18l5.8125 3.18-5.8125 3.1787a7.9952 7.9952 0 0 0 -3.18 3.18l-3.1787 5.8125-3.18-5.8125a7.9956 7.9956 0 0 0 -3.18-3.18l-5.8125-3.1787z"/><path d="m106.4727 99.8633 16.5908 9.0732 9.0732 16.5908a8 8 0 0 0 14.0371 0l9.0742-16.5908 16.5909-9.0732a8 8 0 0 0 0-14.0371l-16.5909-9.0742-9.0742-16.5909a8 8 0 0 0 -14.0371 0l-9.0732 16.5909-16.5908 9.0742a8 8 0 0 0 0 14.0371zm26.3242-10.1983a7.9956 7.9956 0 0 0 3.18-3.18l3.1787-5.8125 3.18 5.8125a7.996 7.996 0 0 0 3.18 3.18l5.8125 3.18-5.8125 3.1787a7.9956 7.9956 0 0 0 -3.18 3.18l-3.18 5.8125-3.1787-5.8125a7.9952 7.9952 0 0 0 -3.18-3.18l-5.8125-3.1787z"/><path d="m388 272h-292v16h292a12.0131 12.0131 0 0 1 12 12v36h-2a38.0433 38.0433 0 0 0 -38 38v2h-26.7041a27.8331 27.8331 0 0 0 2.7041-12v-24a28.0314 28.0314 0 0 0 -28-28h-24a28.0314 28.0314 0 0 0 -28 28v24a27.8331 27.8331 0 0 0 2.7041 12h-12.7041a37.9566 37.9566 0 0 0 -30 14.7019 37.9566 37.9566 0 0 0 -30-14.7019h-12.7041a27.8331 27.8331 0 0 0 2.7041-12v-24a28.0314 28.0314 0 0 0 -28-28h-24a28.0314 28.0314 0 0 0 -28 28v24a27.8331 27.8331 0 0 0 2.7041 12h-26.7041v-2a38.0433 38.0433 0 0 0 -38-38h-2v-36a12.0131 12.0131 0 0 1 12-12h36v-16h-36a28.0314 28.0314 0 0 0 -28 28v188a8 8 0 0 0 8 8h40a8 8 0 0 0 8-8v-16h240v-16h-240v-16h288v16h-32v16h32v16a8 8 0 0 0 8 8h40a8 8 0 0 0 8-8v-188a28.0314 28.0314 0 0 0 -28-28zm-116 92v-24a12.0131 12.0131 0 0 1 12-12h24a12.0131 12.0131 0 0 1 12 12v24a12.0131 12.0131 0 0 1 -12 12h-24a12.0131 12.0131 0 0 1 -12-12zm-160 0v-24a12.0131 12.0131 0 0 1 12-12h24a12.0131 12.0131 0 0 1 12 12v24a12.0131 12.0131 0 0 1 -12 12h-24a12.0131 12.0131 0 0 1 -12-12zm-56 116h-24v-128h2a22.0248 22.0248 0 0 1 22 22zm16-88h114a22.0248 22.0248 0 0 1 22 22v10h-136zm152 32v-10a22.0248 22.0248 0 0 1 22-22h114v32zm176 56h-24v-106a22.0248 22.0248 0 0 1 22-22h2z"/><path d="m496 80v-56a8 8 0 0 0 -8-8h-288a8 8 0 0 0 -8 8v232h16v-16h272v32h-48v16h48v64h-48v16h48v112h-48v16h56a8 8 0 0 0 8-8v-392h-16v32h-80v-96h80v48zm-112 48h-80v-96h80zm-176-96h80v96h-80zm0 112h176v80h-176zm272 80h-32v-80h32zm-48-80v80h-32v-80z"/><path d="m224 168h16v32h-16z"/><path d="m256 72h16v16h-16z"/><path d="m320 72h16v16h-16z"/><path d="m424 96h32v16h-32z"/><path d="m432 408h16v32h-16z"/></g></svg>