<svg id="Layer_1" fill="#fff" height="48" viewBox="0 0 512 512" width="48" xmlns="http://www.w3.org/2000/svg" data-name="Layer 1"><path d="m412.041 167.662a6 6 0 0 0 6-6v-2.3a147.309 147.309 0 0 1 25.084.09 20 20 0 0 0 39.376-4.971v-55.7a20 20 0 0 0 -39.376-4.97 147.832 147.832 0 0 1 -25.084.1v-2.311a6 6 0 0 0 -6-6h-56.054a6 6 0 0 0 -6 6v2.3a147.1 147.1 0 0 1 -25.084-.09 20 20 0 0 0 -39.377 4.97v55.7a20 20 0 0 0 39.374 4.97 147.625 147.625 0 0 1 25.084-.1v2.31a6 6 0 0 0 6 6h1.575c.038 3.145.07 6.777.094 9.892a6 6 0 0 0 -3.923 5.623v17.745a6 6 0 0 0 3.825 5.587c-.3 15.377-.966 28.414-1.82 42.707h-20.565l-8.663-17.423a44.93 44.93 0 0 0 -42.407-30.075h-56.19a44.929 44.929 0 0 0 -37.141 19.642 16.5 16.5 0 0 0 -15.628-21.93h-3.871l8.383-160.028a6 6 0 0 0 -2.113-4.891l-15.449-13.087a6 6 0 0 0 -7.756 0l-15.449 13.084a6 6 0 0 0 -2.115 4.864l7.645 160.058h-3.126a16.522 16.522 0 0 0 -11.251 28.643c-.762 4.581-1.574 8.855-2.366 13.022-.525 2.763-1.03 5.434-1.51 8.121h-10.08c1.638-6.094 3.2-12.441 4.645-18.953a533.643 533.643 0 0 0 12.486-114.039 6 6 0 0 0 -6-6h-87.881a6 6 0 0 0 -6 6c0 58.763 9.971 111.967 20.992 147.452a44.78 44.78 0 0 0 -11.764 26.7l-12.9 152.9a44.941 44.941 0 0 0 44.783 48.726h363.112a44.941 44.941 0 0 0 44.783-48.722l-12.9-152.9a45.217 45.217 0 0 0 -44.784-41.164h-12.34c-.081-1.1-.161-2.195-.241-3.275-1-13.579-1.877-25.54-2.355-39.2a6 6 0 0 0 4.576-5.823v-17.739a6 6 0 0 0 -4.906-5.9c.027-3.178.063-6.643.109-9.619zm42.434-68.349a5.967 5.967 0 0 0 .02-.946 8.008 8.008 0 0 1 16.006.41v55.7a8.013 8.013 0 1 1 -16.026 0zm-36.434 6.572c3.639.357 7.926.536 12.216.536s8.578-.18 12.218-.536v41.489a139.726 139.726 0 0 0 -24.434 0zm-104.488 48.058a5.853 5.853 0 0 0 -.021.946 8.008 8.008 0 0 1 -16.006-.41v-55.7a8.014 8.014 0 0 1 16.027 0zm36.434-6.571a139.726 139.726 0 0 0 -24.434 0v-41.487c3.639.357 7.927.536 12.218.536s8.577-.179 12.216-.536zm12 7.261v-55.425a5.81 5.81 0 0 0 0-.885v-.723h44.054v1.028a.177.177 0 0 0 0 .023v55.4a5.836 5.836 0 0 0 0 .887v.727h-44.054zm3.746 40.287v-5.743h36.567v5.743zm34.55 54.294h-32.524c.817-13.761 1.494-27.038 1.793-42.294h28.166c.483 13.972 1.375 26.109 2.389 39.9.058.788.117 1.595.176 2.394zm-30.721-81.552h27.938c-.047 3.121-.083 6.625-.107 9.515h-27.74c-.023-3.01-.053-6.468-.091-9.515zm-173.152 69.125a5.89 5.89 0 0 0 .308-.738 32.933 32.933 0 0 1 31.187-22.333h56.195a32.933 32.933 0 0 1 31.187 22.333 5.89 5.89 0 0 0 .308.738l6.178 12.427h-131.541zm-8.863-9.908c-.351.716-.676 1.448-.991 2.187-.056-.332-.113-.661-.168-1q.612-.566 1.159-1.187zm-29.334-193.017 9.3 7.878-8.26 157.688h-2.825l-7.528-157.677zm-16.923 177.566h33.846a4.546 4.546 0 1 1 0 9.092h-33.846a4.546 4.546 0 1 1 0-9.092zm36.449 35.958-.909 1.828h-38.473c.356-1.935.725-3.881 1.1-5.88.663-3.486 1.339-7.047 1.993-10.814h33.518c.657 3.774 1.336 7.334 2 10.818.266 1.362.518 2.703.771 4.048zm-132.369-125.164h75.808c-.612 50.768-8.884 97.25-18.459 130.529a5.937 5.937 0 0 0 -.463 1.588c-4.712 16.1-9.711 28.992-14.253 37.63h-9.59c-3.654-6.519-7.585-16.039-11.413-27.893a5.987 5.987 0 0 0 -.364-1.126c-10.736-33.65-20.591-85.475-21.266-140.728zm48.264 187.7v5.01h-20.72v-10.963h20.72v5.949zm-2.008 42.721h-17.068c1.136-8.912 2.074-17.569 2.406-25.711h12.493c.273 7.942 1.059 16.319 2.169 25.707zm-37.108-61.255a32.862 32.862 0 0 1 4.447-13.956c2.072 5.636 4.136 10.6 6.138 14.816a6 6 0 0 0 -4.189 5.721v11.468a44.943 44.943 0 0 0 -8.421 5.951zm-4.282 50.758a32.9 32.9 0 0 1 11.247-18.68 6.01 6.01 0 0 0 3.5 3.14c-.3 7.366-1.164 15.479-2.526 26.033h-13.107zm199.764 137.854h-175.556a32.943 32.943 0 0 1 -32.826-35.712l6.72-79.649h131.562v73.83a6 6 0 0 0 6 6h64.1zm-148.546-153.355a6 6 0 0 0 4.18-5.717v-5.02h74.266v36.731h-76.19c-1.158-9.611-1.978-18.076-2.256-25.994zm90.446 105.824v-116.561h128.2v116.561zm278.48 11.818a32.943 32.943 0 0 1 -32.824 35.713h-175.556v-35.531h64.1a6 6 0 0 0 6-6v-73.83h131.562zm-7.732-91.648h-130.548v-36.731h97.425a33.174 33.174 0 0 1 32.242 26.244zm-38-91.425a33.145 33.145 0 0 1 32.827 30.174l2.036 24.136a44.816 44.816 0 0 0 -29.995-11.616h-323.882v-5.939a6 6 0 0 0 -4.386-5.774 246.882 246.882 0 0 0 11.407-30.981h312z"/></svg>