<?xml version="1.0" encoding="iso-8859-1"?>
<!-- Generator: Adobe Illustrator 19.0.0, SVG Export Plug-In . SVG Version: 6.00 Build 0)  -->
<svg version="1.1" id="Capa_1" xmlns="http://www.w3.org/2000/svg" xmlns:xlink="http://www.w3.org/1999/xlink" x="0px" y="0px"
	 viewBox="0 0 496 496" style="enable-background:new 0 0 496 496;" fill="#fff" height="48" width="48" xml:space="preserve">
<g>
	<g>
		<g>
			<path d="M434.856,286.648C470.864,270.272,496,234.056,496,192c0-57.344-46.656-104-104-104c-5.72,0-11.376,0.64-16.992,1.56
				C372.176,79.464,362.992,72,352,72h-32c-22.056,0-40,17.944-40,40v160c0,17.76,11.712,32.68,27.76,37.88
				C295.136,326.488,288,346.928,288,368v40.888l-72-61.712V240c0-13.232-10.768-24-24-24v-80c0-22.056-17.944-40-40-40h-24V80
				h-19.176l12.712-14.832l-13.752-27.496l-60.76,26.04L39.064,0H0v232v8v256h64V232H41.224l5.68-39.768l60.872,26.088
				l13.752-27.496L72,133.04V128h56v-16h24c13.232,0,24,10.768,24,24v80c-13.232,0-24,10.768-24,24v131.464V432
				c0,13.232,10.768,24,24,24h16c9.888,0,18.384-6.008,22.056-14.568l49.256,42.688c8.848,7.664,20.16,11.88,31.848,11.88
				c0,0,0.008,0,0.016,0c0.272,0,0.544-0.032,0.824-0.04V496h184V368C480,334.608,462.44,303.96,434.856,286.648z M48,248v232H16
				V248H48z M56,117.04v21.92l46.472,54.208l-2.248,4.504L49.64,176H33.064l-8,56H16V16h8.936l8,64H49.64l50.576-21.672l2.248,4.504
				L56,117.04z M112,112H81.392l13.712-16H112V112z M376,105.624c5.272-0.968,10.6-1.624,16-1.624c48.52,0,88,39.472,88,88
				c0,29.8-14.928,56.144-37.664,72.072L431.56,257.6c-12.552-7.528-21-20.448-23.064-34.752C422.024,219.12,432,206.696,432,192
				c0-15.616-11.24-28.648-26.048-31.448L397.768,136H376V105.624z M376,152h10.232l8,24H400c8.824,0,16,7.176,16,16
				c0,8.824-7.176,16-16,16h-8v8c0,22.528,12,43.728,31.328,55.328l2.904,1.744C415.704,277.528,404.136,280,392,280
				c-5.4,0-10.728-0.656-16-1.624V152z M296,272v-24h24c13.232,0,24-10.768,24-24v-8h-16v8c0,4.408-3.592,8-8,8h-24v-80h24
				c4.408,0,8,3.592,8,8v40h16v-40c0-13.232-10.768-24-24-24h-24v-24c0-13.232,10.768-24,24-24h32c4.408,0,8,3.592,8,8v192
				c0,4.408-3.592,8-8,8h-32C306.768,296,296,285.232,296,272z M168,240c0-4.408,3.592-8,8-8h16c4.408,0,8,3.592,8,8v8h-32V240z
				 M168,264h32v73.616c-3.288-0.984-6.68-1.616-10.16-1.616h-2.376c-7.192,0-13.864,2.184-19.464,5.872V264z M200,432
				c0,4.408-3.592,8-8,8h-16c-4.408,0-8-3.592-8-8v-30.48l32,27.736V432z M295.168,480h-0.008c-7.848,0-15.44-2.832-21.376-7.976
				l-99.072-85.856c-4.264-3.696-6.712-9.056-6.712-14.704c0-10.736,8.728-19.464,19.464-19.464h2.376
				c4.648,0,9.144,1.664,12.664,4.68l104.288,89.392l10.416-12.152l-10.672-9.152L344,387.312L372.688,416l-54.448,54.448
				C312.08,476.6,303.888,480,295.168,480z M355.312,376l42.056-42.056c3.832-3.84,8.928-5.944,14.344-5.944
				c11.184,0,20.288,9.096,20.288,20.28c0,5.416-2.112,10.512-5.944,14.344L384,404.68L355.312,376z M464,480H331.312
				l106.064-106.064c6.848-6.848,10.624-15.96,10.624-25.656c0-20.008-16.28-36.28-36.288-36.28
				c-9.688,0-18.808,3.776-25.656,10.632L304,404.68V368c0-21.232,8.2-40.968,23.008-56H352c10.992,0,20.176-7.464,23.008-17.56
				C380.624,295.36,386.28,296,392,296c7.408,0,14.624-0.808,21.592-2.288C443.824,305.768,464,335.304,464,368V480z"/>
			<rect x="312" y="104" width="16" height="16"/>
		</g>
	</g>
</g>
<g>
</g>
<g>
</g>
<g>
</g>
<g>
</g>
<g>
</g>
<g>
</g>
<g>
</g>
<g>
</g>
<g>
</g>
<g>
</g>
<g>
</g>
<g>
</g>
<g>
</g>
<g>
</g>
<g>
</g>
</svg>
