<?xml version="1.0"?>
<svg xmlns="http://www.w3.org/2000/svg" fill="#fff" height="48" width="48" viewBox="0 0 128 128"><g><path d="M77.375,98.558h7a1.75,1.75,0,0,0,0-3.5h-7a1.75,1.75,0,0,0,0,3.5Z"/><path d="M97.808,58.505h6a1.751,1.751,0,0,0,1.75-1.75V55.5H121.5a1.751,1.751,0,0,0,1.75-1.75v-16A1.751,1.751,0,0,0,121.5,36H105.558V34.755a1.751,1.751,0,0,0-1.75-1.75h-6a1.75,1.75,0,0,0-1.75,1.75V36H76.75V31.755A1.751,1.751,0,0,0,75,30.005H73.75V19.75A1.751,1.751,0,0,0,72,18H68.75V14.25H76a4.75,4.75,0,0,0,0-9.5H52a4.75,4.75,0,0,0,0,9.5h7.25V18H56a1.751,1.751,0,0,0-1.75,1.75V30.005H53a1.751,1.751,0,0,0-1.75,1.75V36H31.942V34.755a1.75,1.75,0,0,0-1.75-1.75h-6a1.751,1.751,0,0,0-1.75,1.75V36H6.5a1.751,1.751,0,0,0-1.75,1.75v16A1.751,1.751,0,0,0,6.5,55.5H22.442v1.255a1.751,1.751,0,0,0,1.75,1.75h6a1.75,1.75,0,0,0,1.75-1.75V55.5H51.25v4.255A1.751,1.751,0,0,0,53,61.505h1.25V79.058H53a1.75,1.75,0,0,0-1.75,1.75V85.06H31.942V83.808a1.749,1.749,0,0,0-1.75-1.75h-6a1.75,1.75,0,0,0-1.75,1.75V85.06H6.5a1.751,1.751,0,0,0-1.75,1.75v16a1.751,1.751,0,0,0,1.75,1.75H22.442v1.248a1.751,1.751,0,0,0,1.75,1.75h6a1.75,1.75,0,0,0,1.75-1.75V104.56H51.25v4.248a1.751,1.751,0,0,0,1.75,1.75h1.25V121.5A1.751,1.751,0,0,0,56,123.25H72a1.751,1.751,0,0,0,1.75-1.75V110.558H75a1.751,1.751,0,0,0,1.75-1.75V104.56H96.058v1.248a1.75,1.75,0,0,0,1.75,1.75h6a1.751,1.751,0,0,0,1.75-1.75V104.56H121.5a1.751,1.751,0,0,0,1.75-1.75v-16a1.751,1.751,0,0,0-1.75-1.75H105.558V83.808a1.75,1.75,0,0,0-1.75-1.75h-6a1.749,1.749,0,0,0-1.75,1.75V85.06H76.75V80.808A1.75,1.75,0,0,0,75,79.058H73.75V61.505H75a1.751,1.751,0,0,0,1.75-1.75V55.5H96.058v1.255A1.75,1.75,0,0,0,97.808,58.505ZM8.25,101.06V88.56H22.442v12.5Zm17.692,3v-18.5h2.5v18.5ZM70.25,119.75H57.75v-9.192h12.5Zm3-12.692H54.75v-2.5h18.5Zm46.5-18.5v12.5H105.558V88.56Zm-17.692-3v18.5h-2.5v-18.5Zm-6,15.5H75.024l-.024,0H53l-.024,0H31.942V88.56H96.058ZM73.25,58.005H54.75v-2.5h18.5Zm0,24.553v2.5H54.75v-2.5Zm-3-3.5H57.75V61.505h12.5ZM119.75,39.5V52H105.558V39.5Zm-17.692-2.995v18.5h-2.5v-18.5ZM50.75,9.5A1.252,1.252,0,0,1,52,8.25H76a1.25,1.25,0,0,1,0,2.5H52A1.252,1.252,0,0,1,50.75,9.5Zm12,4.75h2.5V18h-2.5Zm-5,7.25h12.5v8.5H57.75Zm-3,12.005h18.5V36H54.75ZM8.25,52V39.5H22.442V52Zm17.692,3.005v-18.5h2.5v18.5Zm6-3.005V39.5h21.01c.016,0,.031.005.048.005H75c.017,0,.032-.005.048-.005h21.01V52Z"/></g></svg>
